<svg xmlns="http://www.w3.org/2000/svg" viewBox="-862.5 -952.62794416 1725 1905.25588833" width="722.33502" height="811.0144">
  <g>
    <path stroke="#000" fill="#E8EDF9" d="M100 0 50-87H-50l-50 87 50 87H50z"/>
  </g>
  <g>
    <path stroke="#000" fill="#B9C2DA" d="m-50 87-50-87h-100l-50 87 50 87h100z"/>
  </g>
  <g>
    <path stroke="#000" fill="#828CA4" d="M100 174 50 87H-50l-50 87 50 87H50z"/>
    <g>
      <g>
        <path d="M-25.946185 184.31803c-.960365 1.311115-2.10634 2.67651-3.44218 4.081005-4.714425 4.956845-10.49628 9.03509-14.2278 11.16742l-.627785.358685c-2.50815 1.433245-4.05605 4.100555-4.05605 6.989355V226.325c0 4.4459 3.6041 8.05 8.05 8.05h78.4875c4.4459 0 8.05-3.6041 8.05-8.05v-19.410505c0-2.8888-1.5479-5.55611-4.05605-6.989355l-.62767-.358685c-3.731635-2.13233-9.51349-6.210575-14.2278-11.16742-1.335955-1.404495-2.48193-2.76989-3.442295-4.081005 3.53303-.851 6.15802-4.03213 6.15802-7.826325V163.3878c0-2.615675-1.270865-5.068165-3.407795-6.57662l-3.41895-2.41339c1.97271-3.833065 3.089245-8.182825 3.089245-12.789495 0-15.454735-12.52856-27.983295-27.98341-27.983295-15.454735 0-27.983295 12.52856-27.983295 27.983295 0 4.865765 1.245105 9.443685 3.428955 13.429125l-2.512865 1.77376c-2.13693 1.508455-3.407795 3.960945-3.407795 6.57662v13.103905c0 3.794195 2.62499 6.975325 6.15802 7.826325Z" fill="#34364C"/>
        <path d="M18.304205 141.608295c0 5.78128-2.46123 10.987675-6.39285 14.62869l10.13035 7.150815v13.103905H12.12445c.478285 6.073955 4.375405 12.152855 9.418385 17.45516 5.35187 5.627065 11.790835 10.165425 16.066995 12.608945l.62767.358685V226.325H-40.25v-19.410505l.62767-.358685c4.27616-2.44352 10.715125-6.98188 16.066995-12.608945 5.04298-5.302305 8.940215-11.381205 9.418385-17.45516h-9.917255V163.3878l9.434715-6.659765c-4.25086-3.65562-6.94301-9.07327-6.94301-15.11974 0-11.008835 8.92446-19.933295 19.933295-19.933295 11.00895 0 19.93341 8.92446 19.93341 19.933295Z" fill="#F4F7FA"/>
      </g>
    </g>
  </g>
  <g>
    <path stroke="#000" fill="#B9C2DA" d="M250 87 200 0H100L50 87l50 87h100z"/>
  </g>
  <g>
    <path stroke="#000" fill="#828CA4" d="m250-86-50-87H100L50-86l50 87h100z"/>
  </g>
  <g>
    <path stroke="#000" fill="#B9C2DA" d="m100-173-50-87H-50l-50 87 50 87H50z"/>
    <g>
      <g>
        <path d="M-25.946185-162.68197c-.960365 1.311115-2.10634 2.67651-3.44218 4.081005-4.714425 4.956845-10.49628 9.03509-14.2278 11.16742l-.627785.358685c-2.50815 1.433245-4.05605 4.100555-4.05605 6.989355V-120.675c0 4.4459 3.6041 8.05 8.05 8.05h78.4875c4.4459 0 8.05-3.6041 8.05-8.05v-19.410505c0-2.8888-1.5479-5.55611-4.05605-6.989355l-.62767-.358685c-3.731635-2.13233-9.51349-6.210575-14.2278-11.16742-1.335955-1.404495-2.48193-2.76989-3.442295-4.081005 3.53303-.851 6.15802-4.03213 6.15802-7.826325V-183.6122c0-2.615675-1.270865-5.068165-3.407795-6.57662l-3.41895-2.41339c1.97271-3.833065 3.089245-8.182825 3.089245-12.789495 0-15.454735-12.52856-27.983295-27.98341-27.983295-15.454735 0-27.983295 12.52856-27.983295 27.983295 0 4.865765 1.245105 9.443685 3.428955 13.429125l-2.512865 1.77376c-2.13693 1.508455-3.407795 3.960945-3.407795 6.57662v13.103905c0 3.794195 2.62499 6.975325 6.15802 7.826325Z" fill="#F4F7FA"/>
        <path d="M18.304205-205.391705c0 5.78128-2.46123 10.987675-6.39285 14.62869l10.13035 7.150815v13.103905H12.12445c.478285 6.073955 4.375405 12.152855 9.418385 17.45516 5.35187 5.627065 11.790835 10.165425 16.066995 12.608945l.62767.358685V-120.675H-40.25v-19.410505l.62767-.358685c4.27616-2.44352 10.715125-6.98188 16.066995-12.608945 5.04298-5.302305 8.940215-11.381205 9.418385-17.45516h-9.917255V-183.6122l9.434715-6.659765c-4.25086-3.65562-6.94301-9.07327-6.94301-15.11974 0-11.008835 8.92446-19.933295 19.933295-19.933295 11.00895 0 19.93341 8.92446 19.93341 19.933295Z" fill="#34364C"/>
      </g>
    </g>
  </g>
  <g>
    <path stroke="#000" fill="#828CA4" d="m-50-86-50-87h-100l-50 87 50 87h100z"/>
  </g>
  <g>
    <path stroke="#000" fill="#828CA4" d="m-200 174-50-87h-100l-50 87 50 87h100z"/>
  </g>
  <g>
    <path stroke="#000" fill="#E8EDF9" d="m-50 261-50-87h-100l-50 87 50 87h100z"/>
    <g>
      <g>
        <path d="M-175.946185 271.31803c-.960365 1.311115-2.10634 2.67651-3.44218 4.081005-4.714425 4.956845-10.49628 9.03509-14.2278 11.16742l-.627785.358685c-2.50815 1.433245-4.05605 4.100555-4.05605 6.989355V313.325c0 4.4459 3.6041 8.05 8.05 8.05h78.4875c4.4459 0 8.05-3.6041 8.05-8.05v-19.410505c0-2.8888-1.5479-5.55611-4.05605-6.989355l-.62767-.358685c-3.731635-2.13233-9.51349-6.210575-14.2278-11.16742-1.335955-1.404495-2.48193-2.76989-3.442295-4.081005 3.53303-.851 6.15802-4.03213 6.15802-7.826325V250.3878c0-2.615675-1.270865-5.068165-3.407795-6.57662l-3.41895-2.41339c1.97271-3.833065 3.089245-8.182825 3.089245-12.789495 0-15.454735-12.52856-27.983295-27.98341-27.983295-15.454735 0-27.983295 12.52856-27.983295 27.983295 0 4.865765 1.245105 9.443685 3.428955 13.429125l-2.512865 1.77376c-2.13693 1.508455-3.407795 3.960945-3.407795 6.57662v13.103905c0 3.794195 2.62499 6.975325 6.15802 7.826325Z" fill="#34364C"/>
        <path d="M-131.695795 228.608295c0 5.78128-2.46123 10.987675-6.39285 14.62869l10.13035 7.150815v13.103905h-9.917255c.478285 6.073955 4.375405 12.152855 9.418385 17.45516 5.35187 5.627065 11.790835 10.165425 16.066995 12.608945l.62767.358685V313.325H-190.25v-19.410505l.62767-.358685c4.27616-2.44352 10.715125-6.98188 16.066995-12.608945 5.04298-5.302305 8.940215-11.381205 9.418385-17.45516h-9.917255V250.3878l9.434715-6.659765c-4.25086-3.65562-6.94301-9.07327-6.94301-15.11974 0-11.008835 8.92446-19.933295 19.933295-19.933295 11.00895 0 19.93341 8.92446 19.93341 19.933295Z" fill="#F4F7FA"/>
      </g>
    </g>
  </g>
  <g>
    <path stroke="#000" fill="#B9C2DA" d="m100 348-50-87H-50l-50 87 50 87H50z"/>
  </g>
  <g>
    <path stroke="#000" fill="#E8EDF9" d="m250 261-50-87H100l-50 87 50 87h100z"/>
    <g>
      <g>
        <path d="M124.053815 271.31803c-.960365 1.311115-2.10634 2.67651-3.44218 4.081005-4.714425 4.956845-10.49628 9.03509-14.2278 11.16742l-.627785.358685c-2.50815 1.433245-4.05605 4.100555-4.05605 6.989355V313.325c0 4.4459 3.6041 8.05 8.05 8.05h78.4875c4.4459 0 8.05-3.6041 8.05-8.05v-19.410505c0-2.8888-1.5479-5.55611-4.05605-6.989355l-.62767-.358685c-3.731635-2.13233-9.51349-6.210575-14.2278-11.16742-1.335955-1.404495-2.48193-2.76989-3.442295-4.081005 3.53303-.851 6.15802-4.03213 6.15802-7.826325V250.3878c0-2.615675-1.270865-5.068165-3.407795-6.57662l-3.41895-2.41339c1.97271-3.833065 3.089245-8.182825 3.089245-12.789495 0-15.454735-12.52856-27.983295-27.98341-27.983295-15.454735 0-27.983295 12.52856-27.983295 27.983295 0 4.865765 1.245105 9.443685 3.428955 13.429125l-2.512865 1.77376c-2.13693 1.508455-3.407795 3.960945-3.407795 6.57662v13.103905c0 3.794195 2.62499 6.975325 6.15802 7.826325Z" fill="#34364C"/>
        <path d="M168.304205 228.608295c0 5.78128-2.46123 10.987675-6.39285 14.62869l10.13035 7.150815v13.103905h-9.917255c.478285 6.073955 4.375405 12.152855 9.418385 17.45516 5.35187 5.627065 11.790835 10.165425 16.066995 12.608945l.62767.358685V313.325H109.75v-19.410505l.62767-.358685c4.27616-2.44352 10.715125-6.98188 16.066995-12.608945 5.04298-5.302305 8.940215-11.381205 9.418385-17.45516h-9.917255V250.3878l9.434715-6.659765c-4.25086-3.65562-6.94301-9.07327-6.94301-15.11974 0-11.008835 8.92446-19.933295 19.933295-19.933295 11.00895 0 19.93341 8.92446 19.93341 19.933295Z" fill="#F4F7FA"/>
      </g>
    </g>
  </g>
  <g>
    <path stroke="#000" fill="#828CA4" d="m400 174-50-87H250l-50 87 50 87h100z"/>
  </g>
  <g>
    <path stroke="#000" fill="#E8EDF9" d="m400 1-50-87H250L200 1l50 87h100z"/>
  </g>
  <g>
    <path stroke="#000" fill="#B9C2DA" d="m400-172-50-87H250l-50 87 50 87h100z"/>
  </g>
  <g>
    <path stroke="#000" fill="#E8EDF9" d="m250-259-50-87H100l-50 87 50 87h100z"/>
    <g>
      <g>
        <path d="M124.053815-248.68197c-.960365 1.311115-2.10634 2.67651-3.44218 4.081005-4.714425 4.956845-10.49628 9.03509-14.2278 11.16742l-.627785.358685c-2.50815 1.433245-4.05605 4.100555-4.05605 6.989355V-206.675c0 4.4459 3.6041 8.05 8.05 8.05h78.4875c4.4459 0 8.05-3.6041 8.05-8.05v-19.410505c0-2.8888-1.5479-5.55611-4.05605-6.989355l-.62767-.358685c-3.731635-2.13233-9.51349-6.210575-14.2278-11.16742-1.335955-1.404495-2.48193-2.76989-3.442295-4.081005 3.53303-.851 6.15802-4.03213 6.15802-7.826325V-269.6122c0-2.615675-1.270865-5.068165-3.407795-6.57662l-3.41895-2.41339c1.97271-3.833065 3.089245-8.182825 3.089245-12.789495 0-15.454735-12.52856-27.983295-27.98341-27.983295-15.454735 0-27.983295 12.52856-27.983295 27.983295 0 4.865765 1.245105 9.443685 3.428955 13.429125l-2.512865 1.77376c-2.13693 1.508455-3.407795 3.960945-3.407795 6.57662v13.103905c0 3.794195 2.62499 6.975325 6.15802 7.826325Z" fill="#F4F7FA"/>
        <path d="M168.304205-291.391705c0 5.78128-2.46123 10.987675-6.39285 14.62869l10.13035 7.150815v13.103905h-9.917255c.478285 6.073955 4.375405 12.152855 9.418385 17.45516 5.35187 5.627065 11.790835 10.165425 16.066995 12.608945l.62767.358685V-206.675H109.75v-19.410505l.62767-.358685c4.27616-2.44352 10.715125-6.98188 16.066995-12.608945 5.04298-5.302305 8.940215-11.381205 9.418385-17.45516h-9.917255V-269.6122l9.434715-6.659765c-4.25086-3.65562-6.94301-9.07327-6.94301-15.11974 0-11.008835 8.92446-19.933295 19.933295-19.933295 11.00895 0 19.93341 8.92446 19.93341 19.933295Z" fill="#34364C"/>
      </g>
    </g>
  </g>
  <g>
    <path stroke="#000" fill="#828CA4" d="m100-346-50-87H-50l-50 87 50 87H50z"/>
  </g>
  <g>
    <path stroke="#000" fill="#E8EDF9" d="m-50-259-50-87h-100l-50 87 50 87h100z"/>
    <g>
      <g>
        <path d="M-175.946185-248.68197c-.960365 1.311115-2.10634 2.67651-3.44218 4.081005-4.714425 4.956845-10.49628 9.03509-14.2278 11.16742l-.627785.358685c-2.50815 1.433245-4.05605 4.100555-4.05605 6.989355V-206.675c0 4.4459 3.6041 8.05 8.05 8.05h78.4875c4.4459 0 8.05-3.6041 8.05-8.05v-19.410505c0-2.8888-1.5479-5.55611-4.05605-6.989355l-.62767-.358685c-3.731635-2.13233-9.51349-6.210575-14.2278-11.16742-1.335955-1.404495-2.48193-2.76989-3.442295-4.081005 3.53303-.851 6.15802-4.03213 6.15802-7.826325V-269.6122c0-2.615675-1.270865-5.068165-3.407795-6.57662l-3.41895-2.41339c1.97271-3.833065 3.089245-8.182825 3.089245-12.789495 0-15.454735-12.52856-27.983295-27.98341-27.983295-15.454735 0-27.983295 12.52856-27.983295 27.983295 0 4.865765 1.245105 9.443685 3.428955 13.429125l-2.512865 1.77376c-2.13693 1.508455-3.407795 3.960945-3.407795 6.57662v13.103905c0 3.794195 2.62499 6.975325 6.15802 7.826325Z" fill="#F4F7FA"/>
        <path d="M-131.695795-291.391705c0 5.78128-2.46123 10.987675-6.39285 14.62869l10.13035 7.150815v13.103905h-9.917255c.478285 6.073955 4.375405 12.152855 9.418385 17.45516 5.35187 5.627065 11.790835 10.165425 16.066995 12.608945l.62767.358685V-206.675H-190.25v-19.410505l.62767-.358685c4.27616-2.44352 10.715125-6.98188 16.066995-12.608945 5.04298-5.302305 8.940215-11.381205 9.418385-17.45516h-9.917255V-269.6122l9.434715-6.659765c-4.25086-3.65562-6.94301-9.07327-6.94301-15.11974 0-11.008835 8.92446-19.933295 19.933295-19.933295 11.00895 0 19.93341 8.92446 19.93341 19.933295Z" fill="#34364C"/>
      </g>
    </g>
  </g>
  <g>
    <path stroke="#000" fill="#B9C2DA" d="m-200-172-50-87h-100l-50 87 50 87h100z"/>
  </g>
  <g>
    <path stroke="#000" fill="#E8EDF9" d="m-200 1-50-87h-100l-50 87 50 87h100z"/>
  </g>
  <g>
    <path stroke="#000" fill="#E8EDF9" d="m-350 261-50-87h-100l-50 87 50 87h100z"/>
  </g>
  <g>
    <path stroke="#000" fill="#B9C2DA" d="m-200 348-50-87h-100l-50 87 50 87h100z"/>
    <g>
      <g>
        <path d="M-325.946185 358.31803c-.960365 1.311115-2.10634 2.67651-3.44218 4.081005-4.714425 4.956845-10.49628 9.03509-14.2278 11.16742l-.627785.358685c-2.50815 1.433245-4.05605 4.100555-4.05605 6.989355V400.325c0 4.4459 3.6041 8.05 8.05 8.05h78.4875c4.4459 0 8.05-3.6041 8.05-8.05v-19.410505c0-2.8888-1.5479-5.55611-4.05605-6.989355l-.62767-.358685c-3.731635-2.13233-9.51349-6.210575-14.2278-11.16742-1.335955-1.404495-2.48193-2.76989-3.442295-4.081005 3.53303-.851 6.15802-4.03213 6.15802-7.826325V337.3878c0-2.615675-1.270865-5.068165-3.407795-6.57662l-3.41895-2.41339c1.97271-3.833065 3.089245-8.182825 3.089245-12.789495 0-15.454735-12.52856-27.983295-27.98341-27.983295-15.454735 0-27.983295 12.52856-27.983295 27.983295 0 4.865765 1.245105 9.443685 3.428955 13.429125l-2.512865 1.77376c-2.13693 1.508455-3.407795 3.960945-3.407795 6.57662v13.103905c0 3.794195 2.62499 6.975325 6.15802 7.826325Z" fill="#34364C"/>
        <path d="M-281.695795 315.608295c0 5.78128-2.46123 10.987675-6.39285 14.62869l10.13035 7.150815v13.103905h-9.917255c.478285 6.073955 4.375405 12.152855 9.418385 17.45516 5.35187 5.627065 11.790835 10.165425 16.066995 12.608945l.62767.358685V400.325H-340.25v-19.410505l.62767-.358685c4.27616-2.44352 10.715125-6.98188 16.066995-12.608945 5.04298-5.302305 8.940215-11.381205 9.418385-17.45516h-9.917255V337.3878l9.434715-6.659765c-4.25086-3.65562-6.94301-9.07327-6.94301-15.11974 0-11.008835 8.92446-19.933295 19.933295-19.933295 11.00895 0 19.93341 8.92446 19.93341 19.933295Z" fill="#F4F7FA"/>
      </g>
    </g>
  </g>
  <g>
    <path stroke="#000" fill="#828CA4" d="m-50 435-50-87h-100l-50 87 50 87h100z"/>
  </g>
  <g>
    <path stroke="#000" fill="#E8EDF9" d="m100 522-50-87H-50l-50 87 50 87H50z"/>
    <g>
      <g>
        <path d="M-19.49296 483.528705c-.809025-2.222145-1.251315-4.6207-1.251315-7.119535 0-11.49954 9.32213-20.82167 20.82167-20.82167 11.49954 0 20.82167 9.32213 20.82167 20.82167 0 3.368465-.805 6.561555-2.23215 9.38492 2.053555.142025 4.049035 1.067315 5.503785 2.729985 7.90441 9.03348 14.821545 21.91371 14.821545 36.84301 0 10.67338-3.674595 18.582505-8.63995 24.281215l9.430575 1.65393c3.85043.675395 6.65988 4.019595 6.65988 7.92902V574.325c0 2.13555-.8487 4.18255-2.35865 5.6925-1.5088 1.50995-3.556835 2.3575-5.69181 2.3575H-38.2375c-4.4459 0-8.05-3.6041-8.05-8.05v-15.09375c0-3.90494 2.802435-7.246725 6.64769-7.92695l8.50701-1.50489c-5.03309-5.70952-8.768865-13.66292-8.768865-24.432325 0-11.647775 4.513865-21.791695 9.808005-29.565695 3.32764-4.88635 7.09504-9.034745 10.6007-12.272685Z" fill="#34364C"/>
        <path d="M4.025 524.30276h-8.05c0-14.78141 4.483275-29.538095 14.40168-40.3397 1.554225-2.11554 2.472385-4.727535 2.472385-7.55389 0-7.05364-5.71803-12.77167-12.77167-12.77167-7.05364 0-12.77167 5.71803-12.77167 12.77167 0 3.480015 1.39196 6.634925 3.64941 8.93849-7.97801 5.687555-22.8068 20.932415-22.8068 40.019425 0 19.262155 15.10203 27.060305 23.02461 28.66122L-38.2375 559.23125V574.325h76.62979v-15.09375l-30.107805-5.280455c8.012165-1.76364 22.657645-9.615035 22.657645-28.58371 0-12.420345-5.78588-23.492085-12.82963-31.542085-7.73582 6.0375-14.0875 20.125-14.0875 30.47776Z" fill="#F4F7FA"/>
      </g>
    </g>
  </g>
  <g>
    <path stroke="#000" fill="#828CA4" d="m250 435-50-87H100l-50 87 50 87h100z"/>
  </g>
  <g>
    <path stroke="#000" fill="#B9C2DA" d="m400 348-50-87H250l-50 87 50 87h100z"/>
    <g>
      <g>
        <path d="M274.053815 358.31803c-.960365 1.311115-2.10634 2.67651-3.44218 4.081005-4.714425 4.956845-10.49628 9.03509-14.2278 11.16742l-.627785.358685c-2.50815 1.433245-4.05605 4.100555-4.05605 6.989355V400.325c0 4.4459 3.6041 8.05 8.05 8.05h78.4875c4.4459 0 8.05-3.6041 8.05-8.05v-19.410505c0-2.8888-1.5479-5.55611-4.05605-6.989355l-.62767-.358685c-3.731635-2.13233-9.51349-6.210575-14.2278-11.16742-1.335955-1.404495-2.48193-2.76989-3.442295-4.081005 3.53303-.851 6.15802-4.03213 6.15802-7.826325V337.3878c0-2.615675-1.270865-5.068165-3.407795-6.57662l-3.41895-2.41339c1.97271-3.833065 3.089245-8.182825 3.089245-12.789495 0-15.454735-12.52856-27.983295-27.98341-27.983295-15.454735 0-27.983295 12.52856-27.983295 27.983295 0 4.865765 1.245105 9.443685 3.428955 13.429125l-2.512865 1.77376c-2.13693 1.508455-3.407795 3.960945-3.407795 6.57662v13.103905c0 3.794195 2.62499 6.975325 6.15802 7.826325Z" fill="#34364C"/>
        <path d="M318.304205 315.608295c0 5.78128-2.46123 10.987675-6.39285 14.62869l10.13035 7.150815v13.103905h-9.917255c.478285 6.073955 4.375405 12.152855 9.418385 17.45516 5.35187 5.627065 11.790835 10.165425 16.066995 12.608945l.62767.358685V400.325H259.75v-19.410505l.62767-.358685c4.27616-2.44352 10.715125-6.98188 16.066995-12.608945 5.04298-5.302305 8.940215-11.381205 9.418385-17.45516h-9.917255V337.3878l9.434715-6.659765c-4.25086-3.65562-6.94301-9.07327-6.94301-15.11974 0-11.008835 8.92446-19.933295 19.933295-19.933295 11.00895 0 19.93341 8.92446 19.93341 19.933295Z" fill="#F4F7FA"/>
      </g>
    </g>
  </g>
  <g>
    <path stroke="#000" fill="#E8EDF9" d="m550 261-50-87H400l-50 87 50 87h100z"/>
  </g>
  <g>
    <path stroke="#000" fill="#B9C2DA" d="M550 88 500 1H400l-50 87 50 87h100z"/>
  </g>
  <g>
    <path stroke="#000" fill="#828CA4" d="m550-85-50-87H400l-50 87 50 87h100z"/>
  </g>
  <g>
    <path stroke="#000" fill="#E8EDF9" d="m550-258-50-87H400l-50 87 50 87h100z"/>
  </g>
  <g>
    <path stroke="#000" fill="#828CA4" d="m400-345-50-87H250l-50 87 50 87h100z"/>
    <g>
      <g>
        <path d="M274.053815-334.68197c-.960365 1.311115-2.10634 2.67651-3.44218 4.081005-4.714425 4.956845-10.49628 9.03509-14.2278 11.16742l-.627785.358685c-2.50815 1.433245-4.05605 4.100555-4.05605 6.989355V-292.675c0 4.4459 3.6041 8.05 8.05 8.05h78.4875c4.4459 0 8.05-3.6041 8.05-8.05v-19.410505c0-2.8888-1.5479-5.55611-4.05605-6.989355l-.62767-.358685c-3.731635-2.13233-9.51349-6.210575-14.2278-11.16742-1.335955-1.404495-2.48193-2.76989-3.442295-4.081005 3.53303-.851 6.15802-4.03213 6.15802-7.826325V-355.6122c0-2.615675-1.270865-5.068165-3.407795-6.57662l-3.41895-2.41339c1.97271-3.833065 3.089245-8.182825 3.089245-12.789495 0-15.454735-12.52856-27.983295-27.98341-27.983295-15.454735 0-27.983295 12.52856-27.983295 27.983295 0 4.865765 1.245105 9.443685 3.428955 13.429125l-2.512865 1.77376c-2.13693 1.508455-3.407795 3.960945-3.407795 6.57662v13.103905c0 3.794195 2.62499 6.975325 6.15802 7.826325Z" fill="#F4F7FA"/>
        <path d="M318.304205-377.391705c0 5.78128-2.46123 10.987675-6.39285 14.62869l10.13035 7.150815v13.103905h-9.917255c.478285 6.073955 4.375405 12.152855 9.418385 17.45516 5.35187 5.627065 11.790835 10.165425 16.066995 12.608945l.62767.358685V-292.675H259.75v-19.410505l.62767-.358685c4.27616-2.44352 10.715125-6.98188 16.066995-12.608945 5.04298-5.302305 8.940215-11.381205 9.418385-17.45516h-9.917255V-355.6122l9.434715-6.659765c-4.25086-3.65562-6.94301-9.07327-6.94301-15.11974 0-11.008835 8.92446-19.933295 19.933295-19.933295 11.00895 0 19.93341 8.92446 19.93341 19.933295Z" fill="#34364C"/>
      </g>
    </g>
  </g>
  <g>
    <path stroke="#000" fill="#B9C2DA" d="m250-432-50-87H100l-50 87 50 87h100z"/>
  </g>
  <g>
    <path stroke="#000" fill="#E8EDF9" d="m100-519-50-87H-50l-50 87 50 87H50z"/>
    <g>
      <g>
        <path d="M-19.49296-557.471295c-.809025-2.222145-1.251315-4.6207-1.251315-7.119535 0-11.49954 9.32213-20.82167 20.82167-20.82167 11.49954 0 20.82167 9.32213 20.82167 20.82167 0 3.368465-.805 6.561555-2.23215 9.38492 2.053555.142025 4.049035 1.067315 5.503785 2.729985 7.90441 9.03348 14.821545 21.91371 14.821545 36.84301 0 10.67338-3.674595 18.582505-8.63995 24.281215l9.430575 1.65393c3.85043.675395 6.65988 4.019595 6.65988 7.92902v15.09375c0 2.13555-.8487 4.18255-2.35865 5.6925-1.5088 1.50995-3.556835 2.3575-5.69181 2.3575H-38.2375c-4.4459 0-8.05-3.6041-8.05-8.05v-15.09375c0-3.90494 2.802435-7.246725 6.64769-7.92695l8.50701-1.50489c-5.03309-5.70952-8.768865-13.66292-8.768865-24.432325 0-11.647775 4.513865-21.791695 9.808005-29.565695 3.32764-4.88635 7.09504-9.034745 10.6007-12.272685Z" fill="#F4F7FA"/>
        <path d="M4.025-516.69724h-8.05c0-14.78141 4.483275-29.538095 14.40168-40.3397 1.554225-2.11554 2.472385-4.727535 2.472385-7.55389 0-7.05364-5.71803-12.77167-12.77167-12.77167-7.05364 0-12.77167 5.71803-12.77167 12.77167 0 3.480015 1.39196 6.634925 3.64941 8.93849-7.97801 5.687555-22.8068 20.932415-22.8068 40.019425 0 19.262155 15.10203 27.060305 23.02461 28.66122L-38.2375-481.76875v15.09375h76.62979v-15.09375l-30.107805-5.280455c8.012165-1.76364 22.657645-9.615035 22.657645-28.58371 0-12.420345-5.78588-23.492085-12.82963-31.542085-7.73582 6.0375-14.0875 20.125-14.0875 30.47776Z" fill="#34364C"/>
      </g>
    </g>
  </g>
  <g>
    <path stroke="#000" fill="#B9C2DA" d="m-50-432-50-87h-100l-50 87 50 87h100z"/>
  </g>
  <g>
    <path stroke="#000" fill="#828CA4" d="m-200-345-50-87h-100l-50 87 50 87h100z"/>
    <g>
      <g>
        <path d="M-325.946185-334.68197c-.960365 1.311115-2.10634 2.67651-3.44218 4.081005-4.714425 4.956845-10.49628 9.03509-14.2278 11.16742l-.627785.358685c-2.50815 1.433245-4.05605 4.100555-4.05605 6.989355V-292.675c0 4.4459 3.6041 8.05 8.05 8.05h78.4875c4.4459 0 8.05-3.6041 8.05-8.05v-19.410505c0-2.8888-1.5479-5.55611-4.05605-6.989355l-.62767-.358685c-3.731635-2.13233-9.51349-6.210575-14.2278-11.16742-1.335955-1.404495-2.48193-2.76989-3.442295-4.081005 3.53303-.851 6.15802-4.03213 6.15802-7.826325V-355.6122c0-2.615675-1.270865-5.068165-3.407795-6.57662l-3.41895-2.41339c1.97271-3.833065 3.089245-8.182825 3.089245-12.789495 0-15.454735-12.52856-27.983295-27.98341-27.983295-15.454735 0-27.983295 12.52856-27.983295 27.983295 0 4.865765 1.245105 9.443685 3.428955 13.429125l-2.512865 1.77376c-2.13693 1.508455-3.407795 3.960945-3.407795 6.57662v13.103905c0 3.794195 2.62499 6.975325 6.15802 7.826325Z" fill="#F4F7FA"/>
        <path d="M-281.695795-377.391705c0 5.78128-2.46123 10.987675-6.39285 14.62869l10.13035 7.150815v13.103905h-9.917255c.478285 6.073955 4.375405 12.152855 9.418385 17.45516 5.35187 5.627065 11.790835 10.165425 16.066995 12.608945l.62767.358685V-292.675H-340.25v-19.410505l.62767-.358685c4.27616-2.44352 10.715125-6.98188 16.066995-12.608945 5.04298-5.302305 8.940215-11.381205 9.418385-17.45516h-9.917255V-355.6122l9.434715-6.659765c-4.25086-3.65562-6.94301-9.07327-6.94301-15.11974 0-11.008835 8.92446-19.933295 19.933295-19.933295 11.00895 0 19.93341 8.92446 19.93341 19.933295Z" fill="#34364C"/>
      </g>
    </g>
  </g>
  <g>
    <path stroke="#000" fill="#E8EDF9" d="m-350-258-50-87h-100l-50 87 50 87h100z"/>
  </g>
  <g>
    <path stroke="#000" fill="#828CA4" d="m-350-85-50-87h-100l-50 87 50 87h100z"/>
  </g>
  <g>
    <path stroke="#000" fill="#B9C2DA" d="m-350 88-50-87h-100l-50 87 50 87h100z"/>
  </g>
  <g>
    <path stroke="#000" fill="#B9C2DA" d="m-500 348-50-87h-100l-50 87 50 87h100z"/>
  </g>
  <g>
    <path stroke="#000" fill="#828CA4" d="m-350 435-50-87h-100l-50 87 50 87h100z"/>
    <g>
      <g>
        <path d="M-475.946185 445.31803c-.960365 1.311115-2.10634 2.67651-3.44218 4.081005-4.714425 4.956845-10.49628 9.03509-14.2278 11.16742l-.627785.358685c-2.50815 1.433245-4.05605 4.100555-4.05605 6.989355V487.325c0 4.4459 3.6041 8.05 8.05 8.05h78.4875c4.4459 0 8.05-3.6041 8.05-8.05v-19.410505c0-2.8888-1.5479-5.55611-4.05605-6.989355l-.62767-.358685c-3.731635-2.13233-9.51349-6.210575-14.2278-11.16742-1.335955-1.404495-2.48193-2.76989-3.442295-4.081005 3.53303-.851 6.15802-4.03213 6.15802-7.826325V424.3878c0-2.615675-1.270865-5.068165-3.407795-6.57662l-3.41895-2.41339c1.97271-3.833065 3.089245-8.182825 3.089245-12.789495 0-15.454735-12.52856-27.983295-27.98341-27.983295-15.454735 0-27.983295 12.52856-27.983295 27.983295 0 4.865765 1.245105 9.443685 3.428955 13.429125l-2.512865 1.77376c-2.13693 1.508455-3.407795 3.960945-3.407795 6.57662v13.103905c0 3.794195 2.62499 6.975325 6.15802 7.826325Z" fill="#34364C"/>
        <path d="M-431.695795 402.608295c0 5.78128-2.46123 10.987675-6.39285 14.62869l10.13035 7.150815v13.103905h-9.917255c.478285 6.073955 4.375405 12.152855 9.418385 17.45516 5.35187 5.627065 11.790835 10.165425 16.066995 12.608945l.62767.358685V487.325H-490.25v-19.410505l.62767-.358685c4.27616-2.44352 10.715125-6.98188 16.066995-12.608945 5.04298-5.302305 8.940215-11.381205 9.418385-17.45516h-9.917255V424.3878l9.434715-6.659765c-4.25086-3.65562-6.94301-9.07327-6.94301-15.11974 0-11.008835 8.92446-19.933295 19.933295-19.933295 11.00895 0 19.93341 8.92446 19.93341 19.933295Z" fill="#F4F7FA"/>
      </g>
    </g>
  </g>
  <g>
    <path stroke="#000" fill="#E8EDF9" d="m-200 522-50-87h-100l-50 87 50 87h100z"/>
  </g>
  <g>
    <path stroke="#000" fill="#B9C2DA" d="m-50 609-50-87h-100l-50 87 50 87h100z"/>
  </g>
  <g>
    <path stroke="#000" fill="#828CA4" d="m100 696-50-87H-50l-50 87 50 87H50z"/>
    <g>
      <g>
        <path d="M-19.49296 657.528705c-.809025-2.222145-1.251315-4.6207-1.251315-7.119535 0-11.49954 9.32213-20.82167 20.82167-20.82167 11.49954 0 20.82167 9.32213 20.82167 20.82167 0 3.368465-.805 6.561555-2.23215 9.38492 2.053555.142025 4.049035 1.067315 5.503785 2.729985 7.90441 9.03348 14.821545 21.91371 14.821545 36.84301 0 10.67338-3.674595 18.582505-8.63995 24.281215l9.430575 1.65393c3.85043.675395 6.65988 4.019595 6.65988 7.92902V748.325c0 2.13555-.8487 4.18255-2.35865 5.6925-1.5088 1.50995-3.556835 2.3575-5.69181 2.3575H-38.2375c-4.4459 0-8.05-3.6041-8.05-8.05v-15.09375c0-3.90494 2.802435-7.246725 6.64769-7.92695l8.50701-1.50489c-5.03309-5.70952-8.768865-13.66292-8.768865-24.432325 0-11.647775 4.513865-21.791695 9.808005-29.565695 3.32764-4.88635 7.09504-9.034745 10.6007-12.272685Z" fill="#34364C"/>
        <path d="M4.025 698.30276h-8.05c0-14.78141 4.483275-29.538095 14.40168-40.3397 1.554225-2.11554 2.472385-4.727535 2.472385-7.55389 0-7.05364-5.71803-12.77167-12.77167-12.77167-7.05364 0-12.77167 5.71803-12.77167 12.77167 0 3.480015 1.39196 6.634925 3.64941 8.93849-7.97801 5.687555-22.8068 20.932415-22.8068 40.019425 0 19.262155 15.10203 27.060305 23.02461 28.66122L-38.2375 733.23125V748.325h76.62979v-15.09375l-30.107805-5.280455c8.012165-1.76364 22.657645-9.615035 22.657645-28.58371 0-12.420345-5.78588-23.492085-12.82963-31.542085-7.73582 6.0375-14.0875 20.125-14.0875 30.47776Z" fill="#F4F7FA"/>
      </g>
    </g>
  </g>
  <g>
    <path stroke="#000" fill="#B9C2DA" d="m250 609-50-87H100l-50 87 50 87h100z"/>
  </g>
  <g>
    <path stroke="#000" fill="#E8EDF9" d="m400 522-50-87H250l-50 87 50 87h100z"/>
  </g>
  <g>
    <path stroke="#000" fill="#828CA4" d="m550 435-50-87H400l-50 87 50 87h100z"/>
    <g>
      <g>
        <path d="M424.053815 445.31803c-.960365 1.311115-2.10634 2.67651-3.44218 4.081005-4.714425 4.956845-10.49628 9.03509-14.2278 11.16742l-.627785.358685c-2.50815 1.433245-4.05605 4.100555-4.05605 6.989355V487.325c0 4.4459 3.6041 8.05 8.05 8.05h78.4875c4.4459 0 8.05-3.6041 8.05-8.05v-19.410505c0-2.8888-1.5479-5.55611-4.05605-6.989355l-.62767-.358685c-3.731635-2.13233-9.51349-6.210575-14.2278-11.16742-1.335955-1.404495-2.48193-2.76989-3.442295-4.081005 3.53303-.851 6.15802-4.03213 6.15802-7.826325V424.3878c0-2.615675-1.270865-5.068165-3.407795-6.57662l-3.41895-2.41339c1.97271-3.833065 3.089245-8.182825 3.089245-12.789495 0-15.454735-12.52856-27.983295-27.98341-27.983295-15.454735 0-27.983295 12.52856-27.983295 27.983295 0 4.865765 1.245105 9.443685 3.428955 13.429125l-2.512865 1.77376c-2.13693 1.508455-3.407795 3.960945-3.407795 6.57662v13.103905c0 3.794195 2.62499 6.975325 6.15802 7.826325Z" fill="#34364C"/>
        <path d="M468.304205 402.608295c0 5.78128-2.46123 10.987675-6.39285 14.62869l10.13035 7.150815v13.103905h-9.917255c.478285 6.073955 4.375405 12.152855 9.418385 17.45516 5.35187 5.627065 11.790835 10.165425 16.066995 12.608945l.62767.358685V487.325H409.75v-19.410505l.62767-.358685c4.27616-2.44352 10.715125-6.98188 16.066995-12.608945 5.04298-5.302305 8.940215-11.381205 9.418385-17.45516h-9.917255V424.3878l9.434715-6.659765c-4.25086-3.65562-6.94301-9.07327-6.94301-15.11974 0-11.008835 8.92446-19.933295 19.933295-19.933295 11.00895 0 19.93341 8.92446 19.93341 19.933295Z" fill="#F4F7FA"/>
      </g>
    </g>
  </g>
  <g>
    <path stroke="#000" fill="#B9C2DA" d="m700 348-50-87H550l-50 87 50 87h100z"/>
  </g>
  <g>
    <path stroke="#000" fill="#828CA4" d="m700 175-50-87H550l-50 87 50 87h100z"/>
  </g>
  <g>
    <path stroke="#000" fill="#E8EDF9" d="m700 2-50-87H550L500 2l50 87h100z"/>
  </g>
  <g>
    <path stroke="#000" fill="#B9C2DA" d="m700-171-50-87H550l-50 87 50 87h100z"/>
  </g>
  <g>
    <path stroke="#000" fill="#828CA4" d="m700-344-50-87H550l-50 87 50 87h100z"/>
  </g>
  <g>
    <path stroke="#000" fill="#B9C2DA" d="m550-431-50-87H400l-50 87 50 87h100z"/>
    <g>
      <g>
        <path d="M424.053815-420.68197c-.960365 1.311115-2.10634 2.67651-3.44218 4.081005-4.714425 4.956845-10.49628 9.03509-14.2278 11.16742l-.627785.358685c-2.50815 1.433245-4.05605 4.100555-4.05605 6.989355V-378.675c0 4.4459 3.6041 8.05 8.05 8.05h78.4875c4.4459 0 8.05-3.6041 8.05-8.05v-19.410505c0-2.8888-1.5479-5.55611-4.05605-6.989355l-.62767-.358685c-3.731635-2.13233-9.51349-6.210575-14.2278-11.16742-1.335955-1.404495-2.48193-2.76989-3.442295-4.081005 3.53303-.851 6.15802-4.03213 6.15802-7.826325V-441.6122c0-2.615675-1.270865-5.068165-3.407795-6.57662l-3.41895-2.41339c1.97271-3.833065 3.089245-8.182825 3.089245-12.789495 0-15.454735-12.52856-27.983295-27.98341-27.983295-15.454735 0-27.983295 12.52856-27.983295 27.983295 0 4.865765 1.245105 9.443685 3.428955 13.429125l-2.512865 1.77376c-2.13693 1.508455-3.407795 3.960945-3.407795 6.57662v13.103905c0 3.794195 2.62499 6.975325 6.15802 7.826325Z" fill="#F4F7FA"/>
        <path d="M468.304205-463.391705c0 5.78128-2.46123 10.987675-6.39285 14.62869l10.13035 7.150815v13.103905h-9.917255c.478285 6.073955 4.375405 12.152855 9.418385 17.45516 5.35187 5.627065 11.790835 10.165425 16.066995 12.608945l.62767.358685V-378.675H409.75v-19.410505l.62767-.358685c4.27616-2.44352 10.715125-6.98188 16.066995-12.608945 5.04298-5.302305 8.940215-11.381205 9.418385-17.45516h-9.917255V-441.6122l9.434715-6.659765c-4.25086-3.65562-6.94301-9.07327-6.94301-15.11974 0-11.008835 8.92446-19.933295 19.933295-19.933295 11.00895 0 19.93341 8.92446 19.93341 19.933295Z" fill="#34364C"/>
      </g>
    </g>
  </g>
  <g>
    <path stroke="#000" fill="#E8EDF9" d="m400-518-50-87H250l-50 87 50 87h100z"/>
  </g>
  <g>
    <path stroke="#000" fill="#828CA4" d="m250-605-50-87H100l-50 87 50 87h100z"/>
  </g>
  <g>
    <path stroke="#000" fill="#B9C2DA" d="m100-692-50-87H-50l-50 87 50 87H50z"/>
    <g>
      <g>
        <path d="M-19.49296-730.471295c-.809025-2.222145-1.251315-4.6207-1.251315-7.119535 0-11.49954 9.32213-20.82167 20.82167-20.82167 11.49954 0 20.82167 9.32213 20.82167 20.82167 0 3.368465-.805 6.561555-2.23215 9.38492 2.053555.142025 4.049035 1.067315 5.503785 2.729985 7.90441 9.03348 14.821545 21.91371 14.821545 36.84301 0 10.67338-3.674595 18.582505-8.63995 24.281215l9.430575 1.65393c3.85043.675395 6.65988 4.019595 6.65988 7.92902v15.09375c0 2.13555-.8487 4.18255-2.35865 5.6925-1.5088 1.50995-3.556835 2.3575-5.69181 2.3575H-38.2375c-4.4459 0-8.05-3.6041-8.05-8.05v-15.09375c0-3.90494 2.802435-7.246725 6.64769-7.92695l8.50701-1.50489c-5.03309-5.70952-8.768865-13.66292-8.768865-24.432325 0-11.647775 4.513865-21.791695 9.808005-29.565695 3.32764-4.88635 7.09504-9.034745 10.6007-12.272685Z" fill="#F4F7FA"/>
        <path d="M4.025-689.69724h-8.05c0-14.78141 4.483275-29.538095 14.40168-40.3397 1.554225-2.11554 2.472385-4.727535 2.472385-7.55389 0-7.05364-5.71803-12.77167-12.77167-12.77167-7.05364 0-12.77167 5.71803-12.77167 12.77167 0 3.480015 1.39196 6.634925 3.64941 8.93849-7.97801 5.687555-22.8068 20.932415-22.8068 40.019425 0 19.262155 15.10203 27.060305 23.02461 28.66122L-38.2375-654.76875v15.09375h76.62979v-15.09375l-30.107805-5.280455c8.012165-1.76364 22.657645-9.615035 22.657645-28.58371 0-12.420345-5.78588-23.492085-12.82963-31.542085-7.73582 6.0375-14.0875 20.125-14.0875 30.47776Z" fill="#34364C"/>
      </g>
    </g>
  </g>
  <g>
    <path stroke="#000" fill="#828CA4" d="m-50-605-50-87h-100l-50 87 50 87h100z"/>
  </g>
  <g>
    <path stroke="#000" fill="#E8EDF9" d="m-200-518-50-87h-100l-50 87 50 87h100z"/>
  </g>
  <g>
    <path stroke="#000" fill="#B9C2DA" d="m-350-431-50-87h-100l-50 87 50 87h100z"/>
    <g>
      <g>
        <path d="M-475.946185-420.68197c-.960365 1.311115-2.10634 2.67651-3.44218 4.081005-4.714425 4.956845-10.49628 9.03509-14.2278 11.16742l-.627785.358685c-2.50815 1.433245-4.05605 4.100555-4.05605 6.989355V-378.675c0 4.4459 3.6041 8.05 8.05 8.05h78.4875c4.4459 0 8.05-3.6041 8.05-8.05v-19.410505c0-2.8888-1.5479-5.55611-4.05605-6.989355l-.62767-.358685c-3.731635-2.13233-9.51349-6.210575-14.2278-11.16742-1.335955-1.404495-2.48193-2.76989-3.442295-4.081005 3.53303-.851 6.15802-4.03213 6.15802-7.826325V-441.6122c0-2.615675-1.270865-5.068165-3.407795-6.57662l-3.41895-2.41339c1.97271-3.833065 3.089245-8.182825 3.089245-12.789495 0-15.454735-12.52856-27.983295-27.98341-27.983295-15.454735 0-27.983295 12.52856-27.983295 27.983295 0 4.865765 1.245105 9.443685 3.428955 13.429125l-2.512865 1.77376c-2.13693 1.508455-3.407795 3.960945-3.407795 6.57662v13.103905c0 3.794195 2.62499 6.975325 6.15802 7.826325Z" fill="#F4F7FA"/>
        <path d="M-431.695795-463.391705c0 5.78128-2.46123 10.987675-6.39285 14.62869l10.13035 7.150815v13.103905h-9.917255c.478285 6.073955 4.375405 12.152855 9.418385 17.45516 5.35187 5.627065 11.790835 10.165425 16.066995 12.608945l.62767.358685V-378.675H-490.25v-19.410505l.62767-.358685c4.27616-2.44352 10.715125-6.98188 16.066995-12.608945 5.04298-5.302305 8.940215-11.381205 9.418385-17.45516h-9.917255V-441.6122l9.434715-6.659765c-4.25086-3.65562-6.94301-9.07327-6.94301-15.11974 0-11.008835 8.92446-19.933295 19.933295-19.933295 11.00895 0 19.93341 8.92446 19.93341 19.933295Z" fill="#34364C"/>
      </g>
    </g>
  </g>
  <g>
    <path stroke="#000" fill="#828CA4" d="m-500-344-50-87h-100l-50 87 50 87h100z"/>
  </g>
  <g>
    <path stroke="#000" fill="#B9C2DA" d="m-500-171-50-87h-100l-50 87 50 87h100z"/>
  </g>
  <g>
    <path stroke="#000" fill="#E8EDF9" d="m-500 2-50-87h-100l-50 87 50 87h100z"/>
  </g>
  <g>
    <path stroke="#000" fill="#828CA4" d="m-500 175-50-87h-100l-50 87 50 87h100z"/>
  </g>
  <g>
    <path stroke="#000" fill="#828CA4" d="m-650 435-50-87h-100l-50 87 50 87h100z"/>
  </g>
  <g>
    <path stroke="#000" fill="#E8EDF9" d="m-500 522-50-87h-100l-50 87 50 87h100z"/>
    <g>
      <g>
        <path d="M-625.946185 532.31803c-.960365 1.311115-2.10634 2.67651-3.44218 4.081005-4.714425 4.956845-10.49628 9.03509-14.2278 11.16742l-.627785.358685c-2.50815 1.433245-4.05605 4.100555-4.05605 6.989355V574.325c0 4.4459 3.6041 8.05 8.05 8.05h78.4875c4.4459 0 8.05-3.6041 8.05-8.05v-19.410505c0-2.8888-1.5479-5.55611-4.05605-6.989355l-.62767-.358685c-3.731635-2.13233-9.51349-6.210575-14.2278-11.16742-1.335955-1.404495-2.48193-2.76989-3.442295-4.081005 3.53303-.851 6.15802-4.03213 6.15802-7.826325V511.3878c0-2.615675-1.270865-5.068165-3.407795-6.57662l-3.41895-2.41339c1.97271-3.833065 3.089245-8.182825 3.089245-12.789495 0-15.454735-12.52856-27.983295-27.98341-27.983295-15.454735 0-27.983295 12.52856-27.983295 27.983295 0 4.865765 1.245105 9.443685 3.428955 13.429125l-2.512865 1.77376c-2.13693 1.508455-3.407795 3.960945-3.407795 6.57662v13.103905c0 3.794195 2.62499 6.975325 6.15802 7.826325Z" fill="#34364C"/>
        <path d="M-581.695795 489.608295c0 5.78128-2.46123 10.987675-6.39285 14.62869l10.13035 7.150815v13.103905h-9.917255c.478285 6.073955 4.375405 12.152855 9.418385 17.45516 5.35187 5.627065 11.790835 10.165425 16.066995 12.608945l.62767.358685V574.325H-640.25v-19.410505l.62767-.358685c4.27616-2.44352 10.715125-6.98188 16.066995-12.608945 5.04298-5.302305 8.940215-11.381205 9.418385-17.45516h-9.917255V511.3878l9.434715-6.659765c-4.25086-3.65562-6.94301-9.07327-6.94301-15.11974 0-11.008835 8.92446-19.933295 19.933295-19.933295 11.00895 0 19.93341 8.92446 19.93341 19.933295Z" fill="#F4F7FA"/>
      </g>
    </g>
  </g>
  <g>
    <path stroke="#000" fill="#B9C2DA" d="m-350 609-50-87h-100l-50 87 50 87h100z"/>
    <g>
      <g>
        <path d="M-470.125 546.6125c1.46625 0 2.84096.392012 4.025 1.076952 1.18404-.68494 2.55875-1.076952 4.025-1.076952h22.1375c1.46625 0 2.84096.392012 4.025 1.076952 1.18404-.68494 2.55875-1.076952 4.025-1.076952h20.125c4.4459 0 8.05 3.6041 8.05 8.05v18.1125c0 2.533795-1.19255 4.9197-3.22 6.44l-12.421495 9.316035 3.517275 31.655015c.931155 8.380625 4.831955 12.63252 10.51422 20.20895 1.04535 1.393455 1.61 3.08821 1.61 4.83v16.1c0 4.4459-3.6041 8.05-8.05 8.05H-490.25c-4.4459 0-8.05-3.6041-8.05-8.05v-16.1c0-1.74179.56488-3.436545 1.61-4.83 5.682265-7.57643 9.583065-11.828325 10.51422-20.20895l3.517275-31.655015L-495.08 579.215c-2.02699-1.5203-3.22-3.906205-3.22-6.44v-18.1125c0-4.4459 3.6041-8.05 8.05-8.05h20.125Z" fill="#34364C"/>
        <path d="M-490.25 554.6625h20.125v12.075h8.05v-12.075h22.1375v12.075h8.05v-12.075h20.125v18.1125l-16.1 12.075 4.025 36.225h-54.3375l4.025-36.225-16.1-12.075v-18.1125Zm12.075 74.4625h54.3375l12.075 16.1v16.1H-490.25v-16.1l12.075-16.1Z" fill="#F4F7FA"/>
      </g>
    </g>
  </g>
  <g>
    <path stroke="#000" fill="#828CA4" d="m-200 696-50-87h-100l-50 87 50 87h100z"/>
    <g>
      <g transform="matrix(1.15 0 0 1.15 -372.45 623.55)">
        <path d="M51.9572.887187c2.3042-.259095 4.5872.639613 6.0964 2.399893L72.3353 19.9444c16.4009 4.053 25.9036 16.4028 31.1597 31.82 5.415 15.8861 6.755 36.054 6.755 56.7356 0 3.866-3.134 7-7 7H37.9836c-3.7162 0-6.7847-2.904-6.9894-6.615-.1826-3.311.5793-9.0564 2.9008-14.925l.0427-.1075c-6.5927 3.5388-13.9093 2.6912-19.3407-1.176C7.99623 87.9769 4.32604 78.777 8.51928 69.6916c3.02382-6.5515 6.28282-10.0209 8.74822-12.6447 2.3029-2.4509 3.2626-3.5289 3.9415-6.2446 4.1164-16.4657 12.5851-25.9511 21.6797-30.2799-.1315-1.8758-.0245-3.6831.2056-5.3239.5727-4.0841 1.9985-7.85834 3.4518-10.61744 1.0806-2.0515 3.107-3.43478 5.4111-3.693873Z" fill="#34364C"/>
        <circle cx="49" cy="47.25" r="5.25" fill="#34364C"/>
        <path fill-rule="evenodd" clip-rule="evenodd" d="M68.5487 26.2824 52.7394 7.84333C50.451 12.1879 48.2324 19.8557 51.4221 25.391c-1.5482.1379-3.0277.3997-4.1721.859C39.9488 29.18 31.9375 36.75 28 52.5c-1.1401 4.5606-3.1922 6.7445-5.6312 9.3402-2.3006 2.4485-4.9454 5.2633-7.4938 10.7848C9.62501 84 23.7936 95.375 34.125 85.0436c5.8085-5.8085 10.8856-8.2064 15.1483-10.2196 6.1352-2.8975 10.5831-4.9982 13.0956-15.324 1.1953 4.8165.7172 16.1835-10.7582 23.1192C40.1353 89.555 37.7445 104.165 37.9836 108.5H103.25c0-41.1544-5.4487-76.7116-34.7013-82.2176Z" fill="#F4F7FA"/>
      </g>
    </g>
  </g>
  <g>
    <path stroke="#000" fill="#E8EDF9" d="m-50 783-50-87h-100l-50 87 50 87h100z"/>
    <g>
      <g fill-rule="evenodd" clip-rule="evenodd">
        <path d="M-162.07109 718.348564c.135815-4.3458845 3.698055-7.798564 8.04609-7.798564h12.075c4.348035 0 7.910275 3.4526795 8.04609 7.798564l.070725 2.263936h3.958185c4.4459 0 8.05 3.6041 8.05 8.05v4.88244c8.774845-1.985705 18.2459-.659295 26.2844 6.039685 16.7003 13.916725 15.1639 43.089465-4.6552 59.046175-4.78285 3.850775-8.540935 7.04306-11.12832 10.332405-.590295.75049-1.096065 1.4766-1.52168 2.1873l8.1581 1.103425c3.9928.539925 6.9713 3.94841 6.9713 7.97732V835.325c0 4.4459-3.6041 8.05-8.05 8.05h-84.442315c-4.445785 0-8.05-3.6041-8.05-8.05v-15.09375c0-4.02891 2.978615-7.437395 6.971185-7.97732l8.15833-1.103425c-.425615-.7107-.931385-1.43681-1.52168-2.1873-2.587385-3.289345-6.344895-6.481745-11.12786-10.332405-19.819468-15.95671-21.356075-45.12945-4.656005-59.046175 8.03873-6.69898 17.5099-8.02539 26.284745-6.039685v-4.88244c0-4.4459 3.6041-8.05 8.05-8.05h3.958185l.070725-2.263936Z" fill="#34364C"/>
        <path d="M-154.025 718.6h12.075l.31441 10.0625h11.76059v12.075h-11.38316l.55292 13.670855c.220685-.2599.447925-.514855.682065-.763715 10.99469-11.68538 27.296055-17.903775 39.329425-7.87589 12.075 10.0625 12.075 33.20625-4.55055 46.591675-9.41827 7.58241-17.85398 14.89204-17.438255 25.5829l16.916155 2.287925V835.325h-84.442315v-15.09375l16.91627-2.287925c.415725-10.69086-8.019985-18.00049-17.438025-25.5829-16.62578-13.385425-16.62578-36.529175-4.55078-46.591675 12.03337-10.027885 28.334735-3.80949 39.329425 7.87589.23414.24886.46138.503815.682065.763715l.55292-13.670855H-166.1v-12.075h11.76059l.31441-10.0625Zm-11.37465 46.23345c7.379205 12.087075 8.3559 26.21655 8.3559 32.361115-3.69863.00667-17.64192-6.127545-25.024115-16.19775-5.314725-7.24983-6.700475-18.006125-2.144635-22.18212 4.55584-4.175765 14.20089-1.535595 18.81285 6.018755Zm34.8243 0c-7.379205 12.087075-8.3559 26.21655-8.3559 32.361115 3.69863.00667 17.64192-6.127545 25.024115-16.19775 5.314725-7.24983 6.700935-18.006125 2.144635-22.18212-4.55584-4.175765-14.20089-1.535595-18.81285 6.018755Z" fill="#F4F7FA"/>
      </g>
    </g>
  </g>
  <g>
    <path stroke="#000" fill="#B9C2DA" d="m100 870-50-87H-50l-50 87 50 87H50z"/>
    <g>
      <g>
        <path d="M-19.49296 831.528705c-.809025-2.222145-1.251315-4.6207-1.251315-7.119535 0-11.49954 9.32213-20.82167 20.82167-20.82167 11.49954 0 20.82167 9.32213 20.82167 20.82167 0 3.368465-.805 6.561555-2.23215 9.38492 2.053555.142025 4.049035 1.067315 5.503785 2.729985 7.90441 9.03348 14.821545 21.91371 14.821545 36.84301 0 10.67338-3.674595 18.582505-8.63995 24.281215l9.430575 1.65393c3.85043.675395 6.65988 4.019595 6.65988 7.92902V922.325c0 2.13555-.8487 4.18255-2.35865 5.6925-1.5088 1.50995-3.556835 2.3575-5.69181 2.3575H-38.2375c-4.4459 0-8.05-3.6041-8.05-8.05v-15.09375c0-3.90494 2.802435-7.246725 6.64769-7.92695l8.50701-1.50489c-5.03309-5.70952-8.768865-13.66292-8.768865-24.432325 0-11.647775 4.513865-21.791695 9.808005-29.565695 3.32764-4.88635 7.09504-9.034745 10.6007-12.272685Z" fill="#34364C"/>
        <path d="M4.025 872.30276h-8.05c0-14.78141 4.483275-29.538095 14.40168-40.3397 1.554225-2.11554 2.472385-4.727535 2.472385-7.55389 0-7.05364-5.71803-12.77167-12.77167-12.77167-7.05364 0-12.77167 5.71803-12.77167 12.77167 0 3.480015 1.39196 6.634925 3.64941 8.93849-7.97801 5.687555-22.8068 20.932415-22.8068 40.019425 0 19.262155 15.10203 27.060305 23.02461 28.66122L-38.2375 907.23125V922.325h76.62979v-15.09375l-30.107805-5.280455c8.012165-1.76364 22.657645-9.615035 22.657645-28.58371 0-12.420345-5.78588-23.492085-12.82963-31.542085-7.73582 6.0375-14.0875 20.125-14.0875 30.47776Z" fill="#F4F7FA"/>
      </g>
    </g>
  </g>
  <g>
    <path stroke="#000" fill="#E8EDF9" d="m250 783-50-87H100l-50 87 50 87h100z"/>
    <g>
      <g>
        <path d="M113.775 730.675c0 1.987085.319585 3.898845.91034 5.68698l-3.973595 1.864035C107.41757 734.81132 102.79434 732.6875 97.675 732.6875c-10.0032635 0-18.1125 8.10934-18.1125 18.1125 0 8.916985 6.4436225 16.328965 14.928495 17.833625L104.0345 801.354c.19918.6831.48806 1.336645.85905 1.94373l5.50045 9.00059-.03381.00598c-3.845255.680225-6.64769 4.02201-6.64769 7.92695V835.325c0 4.4459 3.6041 8.05 8.05 8.05h76.62979c2.134975 0 4.18301-.84755 5.69181-2.3575 1.50995-1.50995 2.35865-3.55695 2.35865-5.6925v-15.09375c0-3.909425-2.80945-7.253625-6.65988-7.92902l-.16192-.028405 5.4855-8.976095c.37145-.607085.6601-1.26063.85905-1.94373l9.54385-32.720375c8.4847-1.50466 14.92815-8.91664 14.92815-17.833625 0-10.00316-8.1098-18.1125-18.1125-18.1125-5.12555 0-9.7543 2.129225-13.049165 5.551395l-3.96658-1.8607c.594205-1.792735.915745-3.71013.915745-5.703195 0-10.0032405-8.109225-18.112477-18.1125-18.112477S150 720.6717595 150 730.675c0-10.0032405-8.109225-18.112477-18.1125-18.112477S113.775 720.6717595 113.775 730.675Z" fill="#34364C"/>
        <path d="M135.499535 740.06981c3.77292-1.45153 6.450465-5.110485 6.450465-9.39481 0-5.557375-4.505125-10.0625-10.0625-10.0625s-10.0625 4.505125-10.0625 10.0625c0 5.135555 3.847325 9.372615 8.816935 9.98614l-4.48753 36.30136-21.632535-18.788585c1.978115-1.83747 3.21563-4.461195 3.21563-7.373915 0-5.557375-4.505125-10.0625-10.0625-10.0625S87.6125 745.242625 87.6125 750.8s4.505125 10.0625 10.0625 10.0625c.978305 0 1.92395-.13961 2.81819-.39997L111.7625 799.1l11.65364 19.069645-11.65364 2.061605V835.325h76.62979v-15.09375l-11.803255-2.070115L188.2375 799.1l11.26885-38.63747c.8947.26036 1.84.39997 2.81865.39997 5.5568 0 10.0625-4.505125 10.0625-10.0625s-4.5057-10.0625-10.0625-10.0625-10.0625 4.505125-10.0625 10.0625c0 2.91272 1.2374 5.536445 3.2154 7.373915L173.845595 776.9625l-4.48753-36.30136c4.96961-.613525 8.816935-4.850585 8.816935-9.98614 0-5.557375-4.505125-10.0625-10.0625-10.0625S158.05 725.117625 158.05 730.675c0 4.284325 2.677545 7.94328 6.450465 9.39481L150 772.9375l-14.500465-32.86769Z" fill="#F4F7FA"/>
      </g>
    </g>
  </g>
  <g>
    <path stroke="#000" fill="#828CA4" d="m400 696-50-87H250l-50 87 50 87h100z"/>
    <g>
      <g transform="matrix(1.15 0 0 1.15 227.55 623.55)">
        <path d="M51.9572.887187c2.3042-.259095 4.5872.639613 6.0964 2.399893L72.3353 19.9444c16.4009 4.053 25.9036 16.4028 31.1597 31.82 5.415 15.8861 6.755 36.054 6.755 56.7356 0 3.866-3.134 7-7 7H37.9836c-3.7162 0-6.7847-2.904-6.9894-6.615-.1826-3.311.5793-9.0564 2.9008-14.925l.0427-.1075c-6.5927 3.5388-13.9093 2.6912-19.3407-1.176C7.99623 87.9769 4.32604 78.777 8.51928 69.6916c3.02382-6.5515 6.28282-10.0209 8.74822-12.6447 2.3029-2.4509 3.2626-3.5289 3.9415-6.2446 4.1164-16.4657 12.5851-25.9511 21.6797-30.2799-.1315-1.8758-.0245-3.6831.2056-5.3239.5727-4.0841 1.9985-7.85834 3.4518-10.61744 1.0806-2.0515 3.107-3.43478 5.4111-3.693873Z" fill="#34364C"/>
        <circle cx="49" cy="47.25" r="5.25" fill="#34364C"/>
        <path fill-rule="evenodd" clip-rule="evenodd" d="M68.5487 26.2824 52.7394 7.84333C50.451 12.1879 48.2324 19.8557 51.4221 25.391c-1.5482.1379-3.0277.3997-4.1721.859C39.9488 29.18 31.9375 36.75 28 52.5c-1.1401 4.5606-3.1922 6.7445-5.6312 9.3402-2.3006 2.4485-4.9454 5.2633-7.4938 10.7848C9.62501 84 23.7936 95.375 34.125 85.0436c5.8085-5.8085 10.8856-8.2064 15.1483-10.2196 6.1352-2.8975 10.5831-4.9982 13.0956-15.324 1.1953 4.8165.7172 16.1835-10.7582 23.1192C40.1353 89.555 37.7445 104.165 37.9836 108.5H103.25c0-41.1544-5.4487-76.7116-34.7013-82.2176Z" fill="#F4F7FA"/>
      </g>
    </g>
  </g>
  <g>
    <path stroke="#000" fill="#B9C2DA" d="m550 609-50-87H400l-50 87 50 87h100z"/>
    <g>
      <g>
        <path d="M429.875 546.6125c1.46625 0 2.84096.392012 4.025 1.076952 1.18404-.68494 2.55875-1.076952 4.025-1.076952h22.1375c1.46625 0 2.84096.392012 4.025 1.076952 1.18404-.68494 2.55875-1.076952 4.025-1.076952h20.125c4.4459 0 8.05 3.6041 8.05 8.05v18.1125c0 2.533795-1.19255 4.9197-3.22 6.44l-12.421495 9.316035 3.517275 31.655015c.931155 8.380625 4.831955 12.63252 10.51422 20.20895 1.04535 1.393455 1.61 3.08821 1.61 4.83v16.1c0 4.4459-3.6041 8.05-8.05 8.05H409.75c-4.4459 0-8.05-3.6041-8.05-8.05v-16.1c0-1.74179.56488-3.436545 1.61-4.83 5.682265-7.57643 9.583065-11.828325 10.51422-20.20895l3.517275-31.655015L404.92 579.215c-2.02699-1.5203-3.22-3.906205-3.22-6.44v-18.1125c0-4.4459 3.6041-8.05 8.05-8.05h20.125Z" fill="#34364C"/>
        <path d="M409.75 554.6625h20.125v12.075h8.05v-12.075h22.1375v12.075h8.05v-12.075h20.125v18.1125l-16.1 12.075 4.025 36.225H421.825l4.025-36.225-16.1-12.075v-18.1125Zm12.075 74.4625h54.3375l12.075 16.1v16.1H409.75v-16.1l12.075-16.1Z" fill="#F4F7FA"/>
      </g>
    </g>
  </g>
  <g>
    <path stroke="#000" fill="#E8EDF9" d="m700 522-50-87H550l-50 87 50 87h100z"/>
    <g>
      <g>
        <path d="M574.053815 532.31803c-.960365 1.311115-2.10634 2.67651-3.44218 4.081005-4.714425 4.956845-10.49628 9.03509-14.2278 11.16742l-.627785.358685c-2.50815 1.433245-4.05605 4.100555-4.05605 6.989355V574.325c0 4.4459 3.6041 8.05 8.05 8.05h78.4875c4.4459 0 8.05-3.6041 8.05-8.05v-19.410505c0-2.8888-1.5479-5.55611-4.05605-6.989355l-.62767-.358685c-3.731635-2.13233-9.51349-6.210575-14.2278-11.16742-1.335955-1.404495-2.48193-2.76989-3.442295-4.081005 3.53303-.851 6.15802-4.03213 6.15802-7.826325V511.3878c0-2.615675-1.270865-5.068165-3.407795-6.57662l-3.41895-2.41339c1.97271-3.833065 3.089245-8.182825 3.089245-12.789495 0-15.454735-12.52856-27.983295-27.98341-27.983295-15.454735 0-27.983295 12.52856-27.983295 27.983295 0 4.865765 1.245105 9.443685 3.428955 13.429125l-2.512865 1.77376c-2.13693 1.508455-3.407795 3.960945-3.407795 6.57662v13.103905c0 3.794195 2.62499 6.975325 6.15802 7.826325Z" fill="#34364C"/>
        <path d="M618.304205 489.608295c0 5.78128-2.46123 10.987675-6.39285 14.62869l10.13035 7.150815v13.103905h-9.917255c.478285 6.073955 4.375405 12.152855 9.418385 17.45516 5.35187 5.627065 11.790835 10.165425 16.066995 12.608945l.62767.358685V574.325H559.75v-19.410505l.62767-.358685c4.27616-2.44352 10.715125-6.98188 16.066995-12.608945 5.04298-5.302305 8.940215-11.381205 9.418385-17.45516h-9.917255V511.3878l9.434715-6.659765c-4.25086-3.65562-6.94301-9.07327-6.94301-15.11974 0-11.008835 8.92446-19.933295 19.933295-19.933295 11.00895 0 19.93341 8.92446 19.93341 19.933295Z" fill="#F4F7FA"/>
      </g>
    </g>
  </g>
  <g>
    <path stroke="#000" fill="#828CA4" d="m850 435-50-87H700l-50 87 50 87h100z"/>
  </g>
  <g>
    <path stroke="#000" fill="#E8EDF9" d="m850 262-50-87H700l-50 87 50 87h100z"/>
  </g>
  <g>
    <path stroke="#000" fill="#B9C2DA" d="M850 89 800 2H700l-50 87 50 87h100z"/>
  </g>
  <g>
    <path stroke="#000" fill="#828CA4" d="m850-84-50-87H700l-50 87 50 87h100z"/>
  </g>
  <g>
    <path stroke="#000" fill="#E8EDF9" d="m850-257-50-87H700l-50 87 50 87h100z"/>
  </g>
  <g>
    <path stroke="#000" fill="#B9C2DA" d="m850-430-50-87H700l-50 87 50 87h100z"/>
  </g>
  <g>
    <path stroke="#000" fill="#E8EDF9" d="m700-517-50-87H550l-50 87 50 87h100z"/>
    <g>
      <g>
        <path d="M574.053815-506.68197c-.960365 1.311115-2.10634 2.67651-3.44218 4.081005-4.714425 4.956845-10.49628 9.03509-14.2278 11.16742l-.627785.358685c-2.50815 1.433245-4.05605 4.100555-4.05605 6.989355V-464.675c0 4.4459 3.6041 8.05 8.05 8.05h78.4875c4.4459 0 8.05-3.6041 8.05-8.05v-19.410505c0-2.8888-1.5479-5.55611-4.05605-6.989355l-.62767-.358685c-3.731635-2.13233-9.51349-6.210575-14.2278-11.16742-1.335955-1.404495-2.48193-2.76989-3.442295-4.081005 3.53303-.851 6.15802-4.03213 6.15802-7.826325V-527.6122c0-2.615675-1.270865-5.068165-3.407795-6.57662l-3.41895-2.41339c1.97271-3.833065 3.089245-8.182825 3.089245-12.789495 0-15.454735-12.52856-27.983295-27.98341-27.983295-15.454735 0-27.983295 12.52856-27.983295 27.983295 0 4.865765 1.245105 9.443685 3.428955 13.429125l-2.512865 1.77376c-2.13693 1.508455-3.407795 3.960945-3.407795 6.57662v13.103905c0 3.794195 2.62499 6.975325 6.15802 7.826325Z" fill="#F4F7FA"/>
        <path d="M618.304205-549.391705c0 5.78128-2.46123 10.987675-6.39285 14.62869l10.13035 7.150815v13.103905h-9.917255c.478285 6.073955 4.375405 12.152855 9.418385 17.45516 5.35187 5.627065 11.790835 10.165425 16.066995 12.608945l.62767.358685V-464.675H559.75v-19.410505l.62767-.358685c4.27616-2.44352 10.715125-6.98188 16.066995-12.608945 5.04298-5.302305 8.940215-11.381205 9.418385-17.45516h-9.917255V-527.6122l9.434715-6.659765c-4.25086-3.65562-6.94301-9.07327-6.94301-15.11974 0-11.008835 8.92446-19.933295 19.933295-19.933295 11.00895 0 19.93341 8.92446 19.93341 19.933295Z" fill="#34364C"/>
      </g>
    </g>
  </g>
  <g>
    <path stroke="#000" fill="#828CA4" d="m550-604-50-87H400l-50 87 50 87h100z"/>
    <g>
      <g>
        <path d="M429.875-666.3875c1.46625 0 2.84096.392012 4.025 1.076952 1.18404-.68494 2.55875-1.076952 4.025-1.076952h22.1375c1.46625 0 2.84096.392012 4.025 1.076952 1.18404-.68494 2.55875-1.076952 4.025-1.076952h20.125c4.4459 0 8.05 3.6041 8.05 8.05v18.1125c0 2.533795-1.19255 4.9197-3.22 6.44l-12.421495 9.316035 3.517275 31.655015c.931155 8.380625 4.831955 12.63252 10.51422 20.20895 1.04535 1.393455 1.61 3.08821 1.61 4.83v16.1c0 4.4459-3.6041 8.05-8.05 8.05H409.75c-4.4459 0-8.05-3.6041-8.05-8.05v-16.1c0-1.74179.56488-3.436545 1.61-4.83 5.682265-7.57643 9.583065-11.828325 10.51422-20.20895l3.517275-31.655015L404.92-633.785c-2.02699-1.5203-3.22-3.906205-3.22-6.44v-18.1125c0-4.4459 3.6041-8.05 8.05-8.05h20.125Z" fill="#F4F7FA"/>
        <path d="M409.75-658.3375h20.125v12.075h8.05v-12.075h22.1375v12.075h8.05v-12.075h20.125v18.1125l-16.1 12.075 4.025 36.225H421.825l4.025-36.225-16.1-12.075v-18.1125Zm12.075 74.4625h54.3375l12.075 16.1v16.1H409.75v-16.1l12.075-16.1Z" fill="#34364C"/>
      </g>
    </g>
  </g>
  <g>
    <path stroke="#000" fill="#B9C2DA" d="m400-691-50-87H250l-50 87 50 87h100z"/>
    <g>
      <g transform="matrix(1.15 0 0 1.15 227.55 -763.45)">
        <path d="M51.9572.887187c2.3042-.259095 4.5872.639613 6.0964 2.399893L72.3353 19.9444c16.4009 4.053 25.9036 16.4028 31.1597 31.82 5.415 15.8861 6.755 36.054 6.755 56.7356 0 3.866-3.134 7-7 7H37.9836c-3.7162 0-6.7847-2.904-6.9894-6.615-.1826-3.311.5793-9.0564 2.9008-14.925l.0427-.1075c-6.5927 3.5388-13.9093 2.6912-19.3407-1.176C7.99623 87.9769 4.32604 78.777 8.51928 69.6916c3.02382-6.5515 6.28282-10.0209 8.74822-12.6447 2.3029-2.4509 3.2626-3.5289 3.9415-6.2446 4.1164-16.4657 12.5851-25.9511 21.6797-30.2799-.1315-1.8758-.0245-3.6831.2056-5.3239.5727-4.0841 1.9985-7.85834 3.4518-10.61744 1.0806-2.0515 3.107-3.43478 5.4111-3.693873Z" fill="#F4F7FA"/>
        <circle cx="49" cy="47.25" r="5.25" fill="#F4F7FA"/>
        <path fill-rule="evenodd" clip-rule="evenodd" d="M68.5487 26.2824 52.7394 7.84333C50.451 12.1879 48.2324 19.8557 51.4221 25.391c-1.5482.1379-3.0277.3997-4.1721.859C39.9488 29.18 31.9375 36.75 28 52.5c-1.1401 4.5606-3.1922 6.7445-5.6312 9.3402-2.3006 2.4485-4.9454 5.2633-7.4938 10.7848C9.62501 84 23.7936 95.375 34.125 85.0436c5.8085-5.8085 10.8856-8.2064 15.1483-10.2196 6.1352-2.8975 10.5831-4.9982 13.0956-15.324 1.1953 4.8165.7172 16.1835-10.7582 23.1192C40.1353 89.555 37.7445 104.165 37.9836 108.5H103.25c0-41.1544-5.4487-76.7116-34.7013-82.2176Z" fill="#34364C"/>
      </g>
    </g>
  </g>
  <g>
    <path stroke="#000" fill="#E8EDF9" d="m250-778-50-87H100l-50 87 50 87h100z"/>
    <g>
      <g>
        <path d="M113.775-830.325c0 1.987085.319585 3.898845.91034 5.68698l-3.973595 1.864035C107.41757-826.18868 102.79434-828.3125 97.675-828.3125c-10.0032635 0-18.1125 8.10934-18.1125 18.1125 0 8.916985 6.4436225 16.328965 14.928495 17.833625L104.0345-759.646c.19918.6831.48806 1.336645.85905 1.94373l5.50045 9.00059-.03381.00598c-3.845255.680225-6.64769 4.02201-6.64769 7.92695v15.09375c0 4.4459 3.6041 8.05 8.05 8.05h76.62979c2.134975 0 4.18301-.84755 5.69181-2.3575 1.50995-1.50995 2.35865-3.55695 2.35865-5.6925v-15.09375c0-3.909425-2.80945-7.253625-6.65988-7.92902l-.16192-.028405 5.4855-8.976095c.37145-.607085.6601-1.26063.85905-1.94373l9.54385-32.720375c8.4847-1.50466 14.92815-8.91664 14.92815-17.833625 0-10.00316-8.1098-18.1125-18.1125-18.1125-5.12555 0-9.7543 2.129225-13.049165 5.551395l-3.96658-1.8607c.594205-1.792735.915745-3.71013.915745-5.703195 0-10.0032405-8.109225-18.112477-18.1125-18.112477S150-840.3282405 150-830.325c0-10.0032405-8.109225-18.112477-18.1125-18.112477S113.775-840.3282405 113.775-830.325Z" fill="#F4F7FA"/>
        <path d="M135.499535-820.93019c3.77292-1.45153 6.450465-5.110485 6.450465-9.39481 0-5.557375-4.505125-10.0625-10.0625-10.0625s-10.0625 4.505125-10.0625 10.0625c0 5.135555 3.847325 9.372615 8.816935 9.98614l-4.48753 36.30136-21.632535-18.788585c1.978115-1.83747 3.21563-4.461195 3.21563-7.373915 0-5.557375-4.505125-10.0625-10.0625-10.0625S87.6125-815.757375 87.6125-810.2s4.505125 10.0625 10.0625 10.0625c.978305 0 1.92395-.13961 2.81819-.39997L111.7625-761.9l11.65364 19.069645-11.65364 2.061605v15.09375h76.62979v-15.09375l-11.803255-2.070115L188.2375-761.9l11.26885-38.63747c.8947.26036 1.84.39997 2.81865.39997 5.5568 0 10.0625-4.505125 10.0625-10.0625s-4.5057-10.0625-10.0625-10.0625-10.0625 4.505125-10.0625 10.0625c0 2.91272 1.2374 5.536445 3.2154 7.373915L173.845595-784.0375l-4.48753-36.30136c4.96961-.613525 8.816935-4.850585 8.816935-9.98614 0-5.557375-4.505125-10.0625-10.0625-10.0625S158.05-835.882375 158.05-830.325c0 4.284325 2.677545 7.94328 6.450465 9.39481L150-788.0625l-14.500465-32.86769Z" fill="#34364C"/>
      </g>
    </g>
  </g>
  <g>
    <path stroke="#000" fill="#828CA4" d="m100-865-50-87H-50l-50 87 50 87H50z"/>
    <g>
      <g>
        <path d="M-19.49296-903.471295c-.809025-2.222145-1.251315-4.6207-1.251315-7.119535 0-11.49954 9.32213-20.82167 20.82167-20.82167 11.49954 0 20.82167 9.32213 20.82167 20.82167 0 3.368465-.805 6.561555-2.23215 9.38492 2.053555.142025 4.049035 1.067315 5.503785 2.729985 7.90441 9.03348 14.821545 21.91371 14.821545 36.84301 0 10.67338-3.674595 18.582505-8.63995 24.281215l9.430575 1.65393c3.85043.675395 6.65988 4.019595 6.65988 7.92902v15.09375c0 2.13555-.8487 4.18255-2.35865 5.6925-1.5088 1.50995-3.556835 2.3575-5.69181 2.3575H-38.2375c-4.4459 0-8.05-3.6041-8.05-8.05v-15.09375c0-3.90494 2.802435-7.246725 6.64769-7.92695l8.50701-1.50489c-5.03309-5.70952-8.768865-13.66292-8.768865-24.432325 0-11.647775 4.513865-21.791695 9.808005-29.565695 3.32764-4.88635 7.09504-9.034745 10.6007-12.272685Z" fill="#F4F7FA"/>
        <path d="M4.025-862.69724h-8.05c0-14.78141 4.483275-29.538095 14.40168-40.3397 1.554225-2.11554 2.472385-4.727535 2.472385-7.55389 0-7.05364-5.71803-12.77167-12.77167-12.77167-7.05364 0-12.77167 5.71803-12.77167 12.77167 0 3.480015 1.39196 6.634925 3.64941 8.93849-7.97801 5.687555-22.8068 20.932415-22.8068 40.019425 0 19.262155 15.10203 27.060305 23.02461 28.66122L-38.2375-827.76875v15.09375h76.62979v-15.09375l-30.107805-5.280455c8.012165-1.76364 22.657645-9.615035 22.657645-28.58371 0-12.420345-5.78588-23.492085-12.82963-31.542085-7.73582 6.0375-14.0875 20.125-14.0875 30.47776Z" fill="#34364C"/>
      </g>
    </g>
  </g>
  <g>
    <path stroke="#000" fill="#E8EDF9" d="m-50-778-50-87h-100l-50 87 50 87h100z"/>
    <g>
      <g fill-rule="evenodd" clip-rule="evenodd">
        <path d="M-162.07109-842.651436c.135815-4.3458845 3.698055-7.798564 8.04609-7.798564h12.075c4.348035 0 7.910275 3.4526795 8.04609 7.798564l.070725 2.263936h3.958185c4.4459 0 8.05 3.6041 8.05 8.05v4.88244c8.774845-1.985705 18.2459-.659295 26.2844 6.039685 16.7003 13.916725 15.1639 43.089465-4.6552 59.046175-4.78285 3.850775-8.540935 7.04306-11.12832 10.332405-.590295.75049-1.096065 1.4766-1.52168 2.1873l8.1581 1.103425c3.9928.539925 6.9713 3.94841 6.9713 7.97732v15.09375c0 4.4459-3.6041 8.05-8.05 8.05h-84.442315c-4.445785 0-8.05-3.6041-8.05-8.05v-15.09375c0-4.02891 2.978615-7.437395 6.971185-7.97732l8.15833-1.103425c-.425615-.7107-.931385-1.43681-1.52168-2.1873-2.587385-3.289345-6.344895-6.481745-11.12786-10.332405-19.819468-15.95671-21.356075-45.12945-4.656005-59.046175 8.03873-6.69898 17.5099-8.02539 26.284745-6.039685v-4.88244c0-4.4459 3.6041-8.05 8.05-8.05h3.958185l.070725-2.263936Z" fill="#F4F7FA"/>
        <path d="M-154.025-842.4h12.075l.31441 10.0625h11.76059v12.075h-11.38316l.55292 13.670855c.220685-.2599.447925-.514855.682065-.763715 10.99469-11.68538 27.296055-17.903775 39.329425-7.87589 12.075 10.0625 12.075 33.20625-4.55055 46.591675-9.41827 7.58241-17.85398 14.89204-17.438255 25.5829l16.916155 2.287925v15.09375h-84.442315v-15.09375l16.91627-2.287925c.415725-10.69086-8.019985-18.00049-17.438025-25.5829-16.62578-13.385425-16.62578-36.529175-4.55078-46.591675 12.03337-10.027885 28.334735-3.80949 39.329425 7.87589.23414.24886.46138.503815.682065.763715l.55292-13.670855H-166.1v-12.075h11.76059l.31441-10.0625Zm-11.37465 46.23345c7.379205 12.087075 8.3559 26.21655 8.3559 32.361115-3.69863.00667-17.64192-6.127545-25.024115-16.19775-5.314725-7.24983-6.700475-18.006125-2.144635-22.18212 4.55584-4.175765 14.20089-1.535595 18.81285 6.018755Zm34.8243 0c-7.379205 12.087075-8.3559 26.21655-8.3559 32.361115 3.69863.00667 17.64192-6.127545 25.024115-16.19775 5.314725-7.24983 6.700935-18.006125 2.144635-22.18212-4.55584-4.175765-14.20089-1.535595-18.81285 6.018755Z" fill="#34364C"/>
      </g>
    </g>
  </g>
  <g>
    <path stroke="#000" fill="#B9C2DA" d="m-200-691-50-87h-100l-50 87 50 87h100z"/>
    <g>
      <g transform="matrix(1.15 0 0 1.15 -372.45 -763.45)">
        <path d="M51.9572.887187c2.3042-.259095 4.5872.639613 6.0964 2.399893L72.3353 19.9444c16.4009 4.053 25.9036 16.4028 31.1597 31.82 5.415 15.8861 6.755 36.054 6.755 56.7356 0 3.866-3.134 7-7 7H37.9836c-3.7162 0-6.7847-2.904-6.9894-6.615-.1826-3.311.5793-9.0564 2.9008-14.925l.0427-.1075c-6.5927 3.5388-13.9093 2.6912-19.3407-1.176C7.99623 87.9769 4.32604 78.777 8.51928 69.6916c3.02382-6.5515 6.28282-10.0209 8.74822-12.6447 2.3029-2.4509 3.2626-3.5289 3.9415-6.2446 4.1164-16.4657 12.5851-25.9511 21.6797-30.2799-.1315-1.8758-.0245-3.6831.2056-5.3239.5727-4.0841 1.9985-7.85834 3.4518-10.61744 1.0806-2.0515 3.107-3.43478 5.4111-3.693873Z" fill="#F4F7FA"/>
        <circle cx="49" cy="47.25" r="5.25" fill="#F4F7FA"/>
        <path fill-rule="evenodd" clip-rule="evenodd" d="M68.5487 26.2824 52.7394 7.84333C50.451 12.1879 48.2324 19.8557 51.4221 25.391c-1.5482.1379-3.0277.3997-4.1721.859C39.9488 29.18 31.9375 36.75 28 52.5c-1.1401 4.5606-3.1922 6.7445-5.6312 9.3402-2.3006 2.4485-4.9454 5.2633-7.4938 10.7848C9.62501 84 23.7936 95.375 34.125 85.0436c5.8085-5.8085 10.8856-8.2064 15.1483-10.2196 6.1352-2.8975 10.5831-4.9982 13.0956-15.324 1.1953 4.8165.7172 16.1835-10.7582 23.1192C40.1353 89.555 37.7445 104.165 37.9836 108.5H103.25c0-41.1544-5.4487-76.7116-34.7013-82.2176Z" fill="#34364C"/>
      </g>
    </g>
  </g>
  <g>
    <path stroke="#000" fill="#828CA4" d="m-350-604-50-87h-100l-50 87 50 87h100z"/>
    <g>
      <g>
        <path d="M-470.125-666.3875c1.46625 0 2.84096.392012 4.025 1.076952 1.18404-.68494 2.55875-1.076952 4.025-1.076952h22.1375c1.46625 0 2.84096.392012 4.025 1.076952 1.18404-.68494 2.55875-1.076952 4.025-1.076952h20.125c4.4459 0 8.05 3.6041 8.05 8.05v18.1125c0 2.533795-1.19255 4.9197-3.22 6.44l-12.421495 9.316035 3.517275 31.655015c.931155 8.380625 4.831955 12.63252 10.51422 20.20895 1.04535 1.393455 1.61 3.08821 1.61 4.83v16.1c0 4.4459-3.6041 8.05-8.05 8.05H-490.25c-4.4459 0-8.05-3.6041-8.05-8.05v-16.1c0-1.74179.56488-3.436545 1.61-4.83 5.682265-7.57643 9.583065-11.828325 10.51422-20.20895l3.517275-31.655015L-495.08-633.785c-2.02699-1.5203-3.22-3.906205-3.22-6.44v-18.1125c0-4.4459 3.6041-8.05 8.05-8.05h20.125Z" fill="#F4F7FA"/>
        <path d="M-490.25-658.3375h20.125v12.075h8.05v-12.075h22.1375v12.075h8.05v-12.075h20.125v18.1125l-16.1 12.075 4.025 36.225h-54.3375l4.025-36.225-16.1-12.075v-18.1125Zm12.075 74.4625h54.3375l12.075 16.1v16.1H-490.25v-16.1l12.075-16.1Z" fill="#34364C"/>
      </g>
    </g>
  </g>
  <g>
    <path stroke="#000" fill="#E8EDF9" d="m-500-517-50-87h-100l-50 87 50 87h100z"/>
    <g>
      <g>
        <path d="M-625.946185-506.68197c-.960365 1.311115-2.10634 2.67651-3.44218 4.081005-4.714425 4.956845-10.49628 9.03509-14.2278 11.16742l-.627785.358685c-2.50815 1.433245-4.05605 4.100555-4.05605 6.989355V-464.675c0 4.4459 3.6041 8.05 8.05 8.05h78.4875c4.4459 0 8.05-3.6041 8.05-8.05v-19.410505c0-2.8888-1.5479-5.55611-4.05605-6.989355l-.62767-.358685c-3.731635-2.13233-9.51349-6.210575-14.2278-11.16742-1.335955-1.404495-2.48193-2.76989-3.442295-4.081005 3.53303-.851 6.15802-4.03213 6.15802-7.826325V-527.6122c0-2.615675-1.270865-5.068165-3.407795-6.57662l-3.41895-2.41339c1.97271-3.833065 3.089245-8.182825 3.089245-12.789495 0-15.454735-12.52856-27.983295-27.98341-27.983295-15.454735 0-27.983295 12.52856-27.983295 27.983295 0 4.865765 1.245105 9.443685 3.428955 13.429125l-2.512865 1.77376c-2.13693 1.508455-3.407795 3.960945-3.407795 6.57662v13.103905c0 3.794195 2.62499 6.975325 6.15802 7.826325Z" fill="#F4F7FA"/>
        <path d="M-581.695795-549.391705c0 5.78128-2.46123 10.987675-6.39285 14.62869l10.13035 7.150815v13.103905h-9.917255c.478285 6.073955 4.375405 12.152855 9.418385 17.45516 5.35187 5.627065 11.790835 10.165425 16.066995 12.608945l.62767.358685V-464.675H-640.25v-19.410505l.62767-.358685c4.27616-2.44352 10.715125-6.98188 16.066995-12.608945 5.04298-5.302305 8.940215-11.381205 9.418385-17.45516h-9.917255V-527.6122l9.434715-6.659765c-4.25086-3.65562-6.94301-9.07327-6.94301-15.11974 0-11.008835 8.92446-19.933295 19.933295-19.933295 11.00895 0 19.93341 8.92446 19.93341 19.933295Z" fill="#34364C"/>
      </g>
    </g>
  </g>
  <g>
    <path stroke="#000" fill="#B9C2DA" d="m-650-430-50-87h-100l-50 87 50 87h100z"/>
  </g>
  <g>
    <path stroke="#000" fill="#E8EDF9" d="m-650-257-50-87h-100l-50 87 50 87h100z"/>
  </g>
  <g>
    <path stroke="#000" fill="#828CA4" d="m-650-84-50-87h-100l-50 87 50 87h100z"/>
  </g>
  <g>
    <path stroke="#000" fill="#B9C2DA" d="m-650 89-50-87h-100l-50 87 50 87h100z"/>
  </g>
  <g>
    <path stroke="#000" fill="#E8EDF9" d="m-650 262-50-87h-100l-50 87 50 87h100z"/>
  </g>
</svg>
